<svg width="220" height="165" viewBox="0 0 220 165" fill="none" xmlns="http://www.w3.org/2000/svg">
<rect width="220" height="165" rx="6" fill="#F3F5F8"/>
<path d="M0 6C0 2.68629 2.68629 0 6 0H214C217.314 0 220 2.68629 220 6V24H0V6Z" fill="#E0E7EC"/>
<path fill-rule="evenodd" clip-rule="evenodd" d="M12 15C13.6569 15 15 13.6569 15 12C15 10.3431 13.6569 9 12 9C10.3431 9 9 10.3431 9 12C9 13.6569 10.3431 15 12 15ZM22 15C23.6569 15 25 13.6569 25 12C25 10.3431 23.6569 9 22 9C20.3431 9 19 10.3431 19 12C19 13.6569 20.3431 15 22 15ZM35 12C35 13.6569 33.6569 15 32 15C30.3431 15 29 13.6569 29 12C29 10.3431 30.3431 9 32 9C33.6569 9 35 10.3431 35 12Z" fill="#94A2AB"/>
<path fill-rule="evenodd" clip-rule="evenodd" d="M100 90.5C100 86.3579 103.358 83 107.5 83C111.642 83 115 86.3579 115 90.5C115 92.1772 114.449 93.7257 113.519 94.9749L119.742 101.193C120.133 101.584 120.133 102.218 119.742 102.608L119.61 102.74C119.22 103.13 118.587 103.13 118.196 102.74L111.973 96.521C110.724 97.4502 109.176 98 107.5 98C103.358 98 100 94.6421 100 90.5ZM107.5 96C104.467 96 102 93.5327 102 90.5C102 87.4673 104.467 85 107.5 85C110.533 85 113 87.4673 113 90.5C113 93.5327 110.533 96 107.5 96V96Z" fill="#94A2AB"/>
</svg>
