<svg width="66" height="66" viewBox="0 0 66 66" fill="none" xmlns="http://www.w3.org/2000/svg">
<circle cx="33" cy="33" r="33" fill="#E4E2FF"/>
<path d="M50.9895 31.6545C50.9833 30.5679 50.6424 29.5095 50.0133 28.6235C49.3841 27.7375 48.4972 27.0668 47.4733 26.7028C47.2736 26.6305 47.0593 26.6075 46.8487 26.6357C46.6382 26.6638 46.4375 26.7423 46.2637 26.8645C46.0899 26.9867 45.9481 27.1489 45.8503 27.3375C45.7526 27.5261 45.7017 27.7355 45.702 27.948L45.7205 38.0577C45.721 38.2697 45.7725 38.4784 45.8707 38.6664C45.9688 38.8543 46.1107 39.0158 46.2844 39.1374C46.458 39.259 46.6584 39.337 46.8686 39.3649C47.0787 39.3928 47.2925 39.3697 47.4918 39.2976C48.5178 38.9285 49.4046 38.2513 50.0307 37.3587C50.6569 36.4661 50.9918 35.4018 50.9895 34.3115V31.6545Z" fill="#4A3AFF"/>
<path d="M44.588 20.3672C44.588 20.0403 44.4582 19.7268 44.2271 19.4957C43.996 19.2646 43.6825 19.1348 43.3556 19.1348C43.0288 19.1348 42.7153 19.2646 42.4842 19.4957C42.2531 19.7268 42.1232 20.0403 42.1232 20.3672V21.3211L19.7501 28.5442C19.6262 28.5843 19.5181 28.6627 19.4415 28.7681C19.3649 28.8735 19.3237 29.0005 19.3237 29.1308V36.4722C19.3237 36.6034 19.3655 36.7311 19.4431 36.8368C19.5207 36.9425 19.63 37.0208 19.7551 37.0601L21.3572 37.5629C21.4823 37.6023 21.5916 37.6805 21.6691 37.7862C21.7467 37.8919 21.7885 38.0196 21.7885 38.1508V41.3439C21.7967 42.81 22.3844 44.2133 23.4233 45.2477C24.4623 46.2821 25.8683 46.8635 27.3344 46.8651H27.3602C28.8297 46.8566 30.2359 46.2659 31.2706 45.2225C32.3053 44.179 32.8841 42.7678 32.8802 41.2983V41.1751L42.1232 44.0713V45.0153C42.1232 45.3421 42.2531 45.6556 42.4842 45.8867C42.7153 46.1178 43.0288 46.2477 43.3556 46.2477C43.6825 46.2477 43.996 46.1178 44.2271 45.8867C44.4582 45.6556 44.588 45.3421 44.588 45.0153V20.3672ZM30.4154 41.3045C30.4173 41.7091 30.3396 42.1101 30.1865 42.4847C30.0335 42.8592 29.8082 43.2 29.5234 43.4875C29.2387 43.7749 28.9002 44.0035 28.5271 44.1601C28.154 44.3168 27.7538 44.3984 27.3492 44.4003H27.3344C26.5206 44.4003 25.7399 44.0784 25.1627 43.5049C24.5855 42.9313 24.2586 42.1527 24.2534 41.339V39.3092C24.2533 39.2125 24.2761 39.1171 24.3198 39.0308C24.3636 38.9445 24.427 38.8697 24.505 38.8124C24.583 38.7552 24.6734 38.7171 24.7688 38.7013C24.8643 38.6855 24.9621 38.6924 25.0544 38.7214L29.984 40.2668C30.1091 40.3062 30.2184 40.3844 30.296 40.4901C30.3736 40.5958 30.4154 40.7235 30.4154 40.8547V41.3045Z" fill="#4A3AFF"/>
<path d="M19.3227 28.5617C19.3227 28.2308 19.1792 27.9134 18.9237 27.6794C18.6683 27.4454 18.3218 27.314 17.9605 27.314C17.5993 27.314 17.2528 27.4454 16.9974 27.6794C16.7419 27.9134 16.5984 28.2308 16.5984 28.5617L16.6052 37.2959C16.6052 37.4598 16.6404 37.622 16.7089 37.7734C16.7773 37.9248 16.8777 38.0624 17.0042 38.1782C17.1307 38.2941 17.2808 38.386 17.4461 38.4487C17.6113 38.5114 17.7885 38.5437 17.9674 38.5437H17.9605C18.3162 38.5438 18.6578 38.4164 18.9124 38.1889C19.1669 37.9613 19.3142 37.6516 19.3227 37.3259V28.5617Z" fill="white"/>
</svg>
