<svg width="67" height="67" viewBox="0 0 67 67" fill="none" xmlns="http://www.w3.org/2000/svg">
<circle cx="33.3184" cy="33.5918" r="33" fill="#E4E2FF"/>
<rect x="16.182" y="19.2046" width="33.7178" height="27.8968" fill="white"/>
<rect x="21.3003" y="27.5806" width="23.481" height="5.60736" rx="0.680278" fill="#4A3AFF"/>
<rect x="21.3003" y="35.9321" width="10.7363" height="7.2492" rx="0.680278" fill="#4A3AFF"/>
<rect x="34.0454" y="35.9321" width="10.7363" height="2.28612" rx="0.680278" fill="#4A3AFF"/>
<rect x="34.0454" y="40.8955" width="10.7363" height="2.28612" rx="0.680278" fill="#4A3AFF"/>
<path d="M14.7672 44.7996C14.7672 46.0296 15.2558 47.2093 16.1256 48.079C16.9954 48.9488 18.175 49.4374 19.405 49.4374H47.232C48.462 49.4374 49.6417 48.9488 50.5115 48.079C51.3812 47.2093 51.8698 46.0296 51.8698 44.7996V22.3834C51.8698 21.1534 51.3812 19.9738 50.5115 19.104C49.6417 18.2342 48.462 17.7456 47.232 17.7456H19.405C18.175 17.7456 16.9954 18.2342 16.1256 19.104C15.2558 19.9738 14.7672 21.1534 14.7672 22.3834V44.7996ZM37.1834 21.6105C37.1762 21.885 37.0938 22.1524 36.9453 22.3834C36.8163 22.6174 36.627 22.8125 36.3969 22.9484C36.1669 23.0843 35.9046 23.1559 35.6374 23.1559C35.3703 23.1559 35.108 23.0843 34.878 22.9484C34.6479 22.8125 34.4585 22.6174 34.3296 22.3834C34.1811 22.1524 34.0987 21.885 34.0915 21.6105C34.0985 21.3359 34.1808 21.0684 34.3296 20.8375C34.4585 20.6035 34.6479 20.4084 34.878 20.2725C35.108 20.1367 35.3703 20.065 35.6374 20.065C35.9046 20.065 36.1669 20.1367 36.3969 20.2725C36.627 20.4084 36.8163 20.6035 36.9453 20.8375C37.094 21.0684 37.1764 21.3359 37.1834 21.6105V21.6105ZM42.5942 21.6105C42.587 21.885 42.5046 22.1524 42.3561 22.3834C42.2271 22.6174 42.0378 22.8125 41.8077 22.9484C41.5777 23.0843 41.3154 23.1559 41.0482 23.1559C40.7811 23.1559 40.5188 23.0843 40.2888 22.9484C40.0587 22.8125 39.8693 22.6174 39.7404 22.3834C39.5919 22.1524 39.5095 21.885 39.5023 21.6105C39.5093 21.3359 39.5916 21.0684 39.7404 20.8375C39.8693 20.6035 40.0587 20.4084 40.2888 20.2725C40.5188 20.1367 40.7811 20.065 41.0482 20.065C41.3154 20.065 41.5777 20.1367 41.8077 20.2725C42.0378 20.4084 42.2271 20.6035 42.3561 20.8375C42.5048 21.0684 42.5872 21.3359 42.5942 21.6105V21.6105ZM48.005 21.6105C47.9978 21.885 47.9154 22.1524 47.7669 22.3834C47.6379 22.6174 47.4486 22.8125 47.2185 22.9484C46.9885 23.0843 46.7262 23.1559 46.459 23.1559C46.1919 23.1559 45.9296 23.0843 45.6996 22.9484C45.4695 22.8125 45.2801 22.6174 45.1512 22.3834C45.0027 22.1524 44.9203 21.885 44.9131 21.6105C44.9201 21.3359 45.0024 21.0684 45.1512 20.8375C45.2822 20.6052 45.472 20.4115 45.7016 20.2758C45.9312 20.1402 46.1924 20.0673 46.459 20.0645C46.7561 20.0659 47.0464 20.1528 47.2953 20.3148C47.5443 20.4768 47.7413 20.7071 47.8628 20.9782C47.9549 21.1763 48.0034 21.3919 48.005 21.6105V21.6105ZM17.8591 25.8603C17.8591 25.7578 17.8998 25.6595 17.9723 25.587C18.0448 25.5145 18.1431 25.4738 18.2456 25.4738H48.3915C48.494 25.4738 48.5923 25.5145 48.6648 25.587C48.7372 25.6595 48.778 25.7578 48.778 25.8603V44.7981C48.778 45.2081 48.6151 45.6013 48.3252 45.8912C48.0352 46.1811 47.642 46.344 47.232 46.344H19.405C18.995 46.344 18.6018 46.1811 18.3119 45.8912C18.022 45.6013 17.8591 45.2081 17.8591 44.7981V25.8603Z" fill="#4A3AFF"/>
</svg>
