<svg width="66" height="66" viewBox="0 0 66 66" fill="none" xmlns="http://www.w3.org/2000/svg">
<circle cx="33" cy="33" r="33" fill="#E4E2FF"/>
<rect x="15.8633" y="18.6128" width="33.7178" height="27.8968" fill="white"/>
<path d="M14.4474 44.2078C14.4474 45.4378 14.936 46.6175 15.8058 47.4873C16.6755 48.357 17.8552 48.8456 19.0852 48.8456H46.9122C48.1422 48.8456 49.3219 48.357 50.1916 47.4873C51.0614 46.6175 51.55 45.4378 51.55 44.2078V21.7916C51.55 20.5616 51.0614 19.382 50.1916 18.5122C49.3219 17.6424 48.1422 17.1538 46.9122 17.1538H19.0852C17.8552 17.1538 16.6755 17.6424 15.8058 18.5122C14.936 19.382 14.4474 20.5616 14.4474 21.7916V44.2078ZM36.8636 21.0187C36.8563 21.2932 36.774 21.5606 36.6255 21.7916C36.4965 22.0256 36.3071 22.2207 36.0771 22.3566C35.8471 22.4925 35.5848 22.5641 35.3176 22.5641C35.0504 22.5641 34.7882 22.4925 34.5581 22.3566C34.3281 22.2207 34.1387 22.0256 34.0097 21.7916C33.8612 21.5606 33.7789 21.2932 33.7717 21.0187C33.7787 20.7441 33.861 20.4766 34.0097 20.2457C34.1387 20.0117 34.3281 19.8166 34.5581 19.6807C34.7882 19.5449 35.0504 19.4732 35.3176 19.4732C35.5848 19.4732 35.8471 19.5449 36.0771 19.6807C36.3071 19.8166 36.4965 20.0117 36.6255 20.2457C36.7742 20.4766 36.8566 20.7441 36.8636 21.0187V21.0187ZM42.2744 21.0187C42.2671 21.2932 42.1848 21.5606 42.0363 21.7916C41.9073 22.0256 41.7179 22.2207 41.4879 22.3566C41.2579 22.4925 40.9956 22.5641 40.7284 22.5641C40.4612 22.5641 40.199 22.4925 39.9689 22.3566C39.7389 22.2207 39.5495 22.0256 39.4205 21.7916C39.272 21.5606 39.1897 21.2932 39.1825 21.0187C39.1895 20.7441 39.2718 20.4766 39.4205 20.2457C39.5495 20.0117 39.7389 19.8166 39.9689 19.6807C40.199 19.5449 40.4612 19.4732 40.7284 19.4732C40.9956 19.4732 41.2579 19.5449 41.4879 19.6807C41.7179 19.8166 41.9073 20.0117 42.0363 20.2457C42.185 20.4766 42.2674 20.7441 42.2744 21.0187V21.0187ZM47.6852 21.0187C47.6779 21.2932 47.5956 21.5606 47.4471 21.7916C47.3181 22.0256 47.1287 22.2207 46.8987 22.3566C46.6687 22.4925 46.4064 22.5641 46.1392 22.5641C45.872 22.5641 45.6098 22.4925 45.3797 22.3566C45.1497 22.2207 44.9603 22.0256 44.8313 21.7916C44.6828 21.5606 44.6005 21.2932 44.5933 21.0187C44.6003 20.7441 44.6826 20.4766 44.8313 20.2457C44.9624 20.0134 45.1522 19.8197 45.3818 19.684C45.6113 19.5484 45.8726 19.4755 46.1392 19.4727C46.4362 19.4741 46.7266 19.561 46.9755 19.723C47.2245 19.885 47.4215 20.1153 47.5429 20.3864C47.6351 20.5845 47.6836 20.8001 47.6852 21.0187V21.0187ZM17.5393 25.2685C17.5393 25.166 17.58 25.0677 17.6525 24.9952C17.725 24.9227 17.8233 24.882 17.9258 24.882H48.0716C48.1741 24.882 48.2725 24.9227 48.3449 24.9952C48.4174 25.0677 48.4581 25.166 48.4581 25.2685V44.2063C48.4581 44.6163 48.2953 45.0095 48.0053 45.2994C47.7154 45.5893 47.3222 45.7522 46.9122 45.7522H19.0852C18.6752 45.7522 18.282 45.5893 17.9921 45.2994C17.7021 45.0095 17.5393 44.6163 17.5393 44.2063V25.2685Z" fill="#4A3AFF"/>
<path d="M24.9482 39.8907C25.2381 40.1805 25.6313 40.3433 26.0412 40.3433C26.4511 40.3433 26.8443 40.1805 27.1342 39.8907L30.9991 36.0258C31.2889 35.7359 31.4517 35.3427 31.4517 34.9328C31.4517 34.5229 31.2889 34.1297 30.9991 33.8398L27.1342 29.975C26.8426 29.6934 26.4521 29.5376 26.0468 29.5411C25.6414 29.5446 25.2537 29.7072 24.9671 29.9938C24.6804 30.2804 24.5179 30.6682 24.5143 31.0735C24.5108 31.4789 24.6666 31.8694 24.9482 32.1609L27.4465 34.6592C27.4825 34.6951 27.511 34.7377 27.5305 34.7847C27.55 34.8316 27.56 34.882 27.56 34.9328C27.56 34.9837 27.55 35.034 27.5305 35.0809C27.511 35.1279 27.4825 35.1706 27.4465 35.2065L24.9482 37.7047C24.6584 37.9946 24.4956 38.3877 24.4956 38.7977C24.4956 39.2076 24.6584 39.6008 24.9482 39.8907V39.8907Z" fill="#4A3AFF"/>
<path d="M34.5447 40.3433H40.7285C41.1385 40.3433 41.5317 40.1805 41.8216 39.8906C42.1116 39.6006 42.2744 39.2074 42.2744 38.7974C42.2744 38.3874 42.1116 37.9942 41.8216 37.7043C41.5317 37.4143 41.1385 37.2515 40.7285 37.2515H34.5447C34.1347 37.2515 33.7415 37.4143 33.4516 37.7043C33.1617 37.9942 32.9988 38.3874 32.9988 38.7974C32.9988 39.2074 33.1617 39.6006 33.4516 39.8906C33.7415 40.1805 34.1347 40.3433 34.5447 40.3433V40.3433Z" fill="#4A3AFF"/>
</svg>
