<svg width="67" height="67" viewBox="0 0 67 67" fill="none" xmlns="http://www.w3.org/2000/svg">
<circle cx="33.8184" cy="33.8037" r="33" fill="#E4E2FF"/>
<circle cx="33.9339" cy="33.5622" r="8.70379" fill="white"/>
<path fill-rule="evenodd" clip-rule="evenodd" d="M51.0258 37.0398C51.7583 37.4289 52.3234 38.0432 52.7211 38.6576C53.4954 39.9273 53.4326 41.4838 52.6792 42.8559L51.2142 45.3134C50.4398 46.6241 48.9957 47.4432 47.5097 47.4432C46.7772 47.4432 45.961 47.2384 45.2913 46.8289C44.7471 46.4807 44.1192 46.3578 43.4495 46.3578C41.3776 46.3578 39.6404 48.0576 39.5777 50.0851C39.5777 52.4402 37.6522 54.2833 35.2454 54.2833H32.399C29.9713 54.2833 28.0458 52.4402 28.0458 50.0851C28.0039 48.0576 26.2668 46.3578 24.1949 46.3578C23.5042 46.3578 22.8763 46.4807 22.3531 46.8289C21.6834 47.2384 20.8462 47.4432 20.1346 47.4432C18.6277 47.4432 17.1836 46.6241 16.4093 45.3134L14.9652 42.8559C14.1908 41.5247 14.1489 39.9273 14.9233 38.6576C15.2582 38.0432 15.886 37.4289 16.5976 37.0398C17.1836 36.753 17.5604 36.282 17.9162 35.7291C18.9626 33.9679 18.3347 31.6537 16.5558 30.6092C14.4838 29.4419 13.8141 26.8411 15.007 24.8136L16.4093 22.397C17.6232 20.3696 20.2183 19.6528 22.3112 20.8406C24.1321 21.8236 26.497 21.1683 27.5644 19.4275C27.8993 18.8541 28.0876 18.2397 28.0458 17.6254C28.0039 16.8267 28.2341 16.0689 28.6318 15.4546C29.4062 14.1848 30.8084 13.3657 32.3362 13.3247H35.2872C36.836 13.3247 38.2382 14.1848 39.0126 15.4546C39.3893 16.0689 39.6404 16.8267 39.5777 17.6254C39.5358 18.2397 39.7242 18.8541 40.059 19.4275C41.1264 21.1683 43.4914 21.8236 45.3331 20.8406C47.4051 19.6528 50.0212 20.3696 51.2142 22.397L52.6164 24.8136C53.8303 26.8411 53.1606 29.4419 51.0677 30.6092C49.2887 31.6537 48.6608 33.9679 49.7282 35.7291C50.0631 36.282 50.4398 36.753 51.0258 37.0398ZM27.9001 33.8239C27.9001 37.0391 30.5581 39.5991 33.8439 39.5991C37.1298 39.5991 39.725 37.0391 39.725 33.8239C39.725 30.6086 37.1298 28.0282 33.8439 28.0282C30.5581 28.0282 27.9001 30.6086 27.9001 33.8239Z" fill="#4A3AFF"/>
</svg>
