<svg xmlns="http://www.w3.org/2000/svg" xmlns:xlink="http://www.w3.org/1999/xlink" width="800" zoomAndPan="magnify" viewBox="0 0 600 449.999984" height="600" preserveAspectRatio="xMidYMid meet" version="1.0"><path fill="#8d8f91" d="M 504.757812 240.894531 C 502.75 226.664062 509.648438 217.542969 507.007812 216.222656 C 503.730469 214.558594 489.324219 227.128906 482.914062 244.121094 C 477.410156 229.15625 470.855469 214.609375 464.351562 200.109375 C 457.210938 184.195312 449.871094 168.324219 442.339844 152.457031 L 484.0625 152.457031 C 484.542969 152.429688 485.015625 152.359375 485.480469 152.242188 C 485.945312 152.125 486.394531 151.964844 486.832031 151.761719 C 487.265625 151.5625 487.679688 151.320312 488.066406 151.039062 C 488.457031 150.757812 488.816406 150.445312 489.144531 150.09375 C 489.472656 149.746094 489.769531 149.371094 490.027344 148.964844 C 490.285156 148.5625 490.5 148.136719 490.679688 147.691406 C 490.855469 147.246094 490.988281 146.785156 491.082031 146.316406 C 491.171875 145.84375 491.214844 145.371094 491.214844 144.890625 C 491.214844 144.410156 491.171875 143.933594 491.082031 143.464844 C 490.988281 142.992188 490.855469 142.535156 490.679688 142.089844 C 490.5 141.644531 490.285156 141.21875 490.027344 140.816406 C 489.769531 140.410156 489.472656 140.035156 489.144531 139.683594 C 488.816406 139.335938 488.457031 139.023438 488.066406 138.742188 C 487.679688 138.460938 487.265625 138.21875 486.832031 138.015625 C 486.394531 137.816406 485.945312 137.65625 485.480469 137.539062 C 485.015625 137.421875 484.542969 137.351562 484.0625 137.324219 L 435.148438 137.324219 C 429.765625 125.878906 424.363281 114.390625 418.933594 102.726562 C 427.492188 101.675781 435.367188 101.210938 443.023438 99.671875 C 462.808594 95.636719 476.3125 76.269531 472.496094 58.105469 C 468.679688 39.9375 449.332031 27.984375 429.792969 33.019531 C 409.199219 38.347656 395.550781 51.796875 390.121094 72.554688 C 386.621094 85.832031 387.476562 96.566406 389.335938 112.285156 C 390.34375 120.730469 391.8125 129.089844 393.738281 137.371094 L 373.585938 137.371094 L 373.585938 69.742188 C 373.558594 69.265625 373.488281 68.792969 373.371094 68.328125 C 373.253906 67.863281 373.09375 67.414062 372.890625 66.976562 C 372.6875 66.542969 372.449219 66.128906 372.167969 65.742188 C 371.886719 65.351562 371.570312 64.992188 371.222656 64.664062 C 370.875 64.335938 370.496094 64.042969 370.09375 63.78125 C 369.6875 63.523438 369.261719 63.308594 368.816406 63.128906 C 368.371094 62.953125 367.914062 62.820312 367.441406 62.730469 C 366.972656 62.640625 366.496094 62.59375 366.015625 62.59375 C 365.535156 62.59375 365.0625 62.640625 364.589844 62.730469 C 364.117188 62.820312 363.660156 62.953125 363.214844 63.128906 C 362.769531 63.308594 362.34375 63.523438 361.9375 63.78125 C 361.535156 64.042969 361.15625 64.335938 360.808594 64.664062 C 360.460938 64.992188 360.144531 65.351562 359.867188 65.742188 C 359.585938 66.128906 359.34375 66.542969 359.140625 66.976562 C 358.9375 67.414062 358.777344 67.863281 358.664062 68.328125 C 358.546875 68.792969 358.472656 69.265625 358.445312 69.742188 L 358.445312 137.273438 L 329 137.273438 L 329 69.742188 C 329 69.246094 328.953125 68.753906 328.855469 68.265625 C 328.757812 67.78125 328.617188 67.304688 328.425781 66.847656 C 328.238281 66.386719 328.003906 65.953125 327.730469 65.539062 C 327.453125 65.125 327.140625 64.742188 326.789062 64.390625 C 326.4375 64.039062 326.058594 63.726562 325.644531 63.449219 C 325.230469 63.171875 324.796875 62.941406 324.335938 62.75 C 323.878906 62.558594 323.40625 62.414062 322.917969 62.320312 C 322.429688 62.222656 321.9375 62.171875 321.441406 62.171875 C 320.945312 62.171875 320.453125 62.222656 319.964844 62.320312 C 319.476562 62.414062 319.003906 62.558594 318.546875 62.75 C 318.085938 62.941406 317.648438 63.171875 317.238281 63.449219 C 316.824219 63.726562 316.441406 64.039062 316.089844 64.390625 C 315.742188 64.742188 315.425781 65.125 315.152344 65.539062 C 314.875 65.953125 314.644531 66.386719 314.453125 66.847656 C 314.265625 67.304688 314.121094 67.78125 314.027344 68.265625 C 313.929688 68.753906 313.882812 69.246094 313.882812 69.742188 L 313.882812 137.273438 L 284.289062 137.273438 L 284.289062 69.742188 C 284.261719 69.265625 284.1875 68.792969 284.074219 68.328125 C 283.957031 67.863281 283.796875 67.414062 283.59375 66.976562 C 283.390625 66.542969 283.148438 66.128906 282.871094 65.742188 C 282.589844 65.351562 282.273438 64.992188 281.925781 64.664062 C 281.578125 64.335938 281.199219 64.042969 280.796875 63.78125 C 280.390625 63.523438 279.964844 63.308594 279.519531 63.128906 C 279.074219 62.953125 278.617188 62.820312 278.144531 62.730469 C 277.675781 62.640625 277.199219 62.59375 276.71875 62.59375 C 276.238281 62.59375 275.761719 62.640625 275.292969 62.730469 C 274.820312 62.820312 274.363281 62.953125 273.917969 63.128906 C 273.472656 63.308594 273.046875 63.523438 272.640625 63.78125 C 272.238281 64.042969 271.859375 64.335938 271.511719 64.664062 C 271.164062 64.992188 270.847656 65.351562 270.566406 65.742188 C 270.289062 66.128906 270.046875 66.542969 269.84375 66.976562 C 269.640625 67.414062 269.480469 67.863281 269.363281 68.328125 C 269.25 68.792969 269.175781 69.265625 269.148438 69.742188 L 269.148438 137.273438 L 239.578125 137.273438 L 239.578125 69.742188 C 239.550781 69.265625 239.480469 68.792969 239.363281 68.328125 C 239.246094 67.863281 239.085938 67.414062 238.882812 66.976562 C 238.679688 66.542969 238.441406 66.128906 238.160156 65.742188 C 237.878906 65.351562 237.566406 64.992188 237.214844 64.664062 C 236.867188 64.335938 236.492188 64.042969 236.085938 63.78125 C 235.679688 63.523438 235.257812 63.308594 234.8125 63.128906 C 234.363281 62.953125 233.90625 62.820312 233.433594 62.730469 C 232.964844 62.640625 232.488281 62.59375 232.007812 62.59375 C 231.527344 62.59375 231.054688 62.640625 230.582031 62.730469 C 230.113281 62.820312 229.652344 62.953125 229.207031 63.128906 C 228.761719 63.308594 228.335938 63.523438 227.933594 63.78125 C 227.527344 64.042969 227.152344 64.335938 226.800781 64.664062 C 226.453125 64.992188 226.140625 65.351562 225.859375 65.742188 C 225.578125 66.128906 225.335938 66.542969 225.132812 66.976562 C 224.929688 67.414062 224.773438 67.863281 224.65625 68.328125 C 224.539062 68.792969 224.464844 69.265625 224.4375 69.742188 L 224.4375 137.273438 L 203.699219 137.273438 C 206.152344 128.554688 207.878906 119.699219 208.882812 110.695312 C 210.03125 102.800781 210.246094 94.878906 209.519531 86.929688 C 207.074219 64.046875 198.074219 45.023438 175.277344 35.585938 C 161.066406 29.667969 147.199219 30.28125 135.484375 41.0625 C 126.359375 49.449219 121.789062 59.867188 125.699219 72.675781 C 130.59375 88.152344 141.183594 97.128906 156.886719 100.0625 C 163.78125 101.355469 170.875 101.699219 179.019531 102.507812 C 176.792969 107.394531 175.058594 111.550781 173.101562 115.5625 L 162.683594 137.25 L 113.765625 137.25 C 113.285156 137.277344 112.8125 137.347656 112.347656 137.464844 C 111.882812 137.582031 111.433594 137.742188 111 137.945312 C 110.5625 138.144531 110.152344 138.386719 109.761719 138.667969 C 109.371094 138.949219 109.011719 139.261719 108.683594 139.613281 C 108.355469 139.960938 108.0625 140.335938 107.804688 140.742188 C 107.546875 141.144531 107.328125 141.570312 107.148438 142.015625 C 106.972656 142.460938 106.839844 142.921875 106.75 143.390625 C 106.660156 143.863281 106.613281 144.335938 106.613281 144.816406 C 106.613281 145.296875 106.660156 145.773438 106.75 146.242188 C 106.839844 146.714844 106.972656 147.171875 107.148438 147.617188 C 107.328125 148.0625 107.546875 148.488281 107.804688 148.890625 C 108.0625 149.296875 108.355469 149.671875 108.683594 150.023438 C 109.011719 150.371094 109.371094 150.683594 109.761719 150.964844 C 110.152344 151.246094 110.5625 151.488281 111 151.6875 C 111.433594 151.890625 111.882812 152.050781 112.347656 152.167969 C 112.8125 152.285156 113.285156 152.355469 113.765625 152.382812 L 155.34375 152.382812 C 141.011719 182.628906 127.167969 213.09375 115.0625 244.339844 C 108.675781 227.226562 94.148438 214.535156 90.847656 216.199219 C 88.230469 217.519531 95.128906 226.640625 93.097656 240.867188 C 89.796875 266.101562 62.28125 278.742188 65.925781 285.734375 C 68.371094 290.28125 79.644531 284.5625 92.558594 289.941406 C 96.617188 291.664062 100.179688 294.109375 103.246094 297.273438 C 103.101562 308.09375 104.570312 318.6875 107.652344 329.058594 C 109.535156 335.320312 125.996094 374.683594 177.210938 403.875 C 258.753906 450.332031 350.351562 426.515625 380.484375 418.695312 C 418.664062 408.765625 440.625 395.125 457.039062 380.160156 C 482.644531 356.8125 495.753906 329.28125 494.875 297.371094 C 497.957031 294.203125 501.535156 291.757812 505.613281 290.039062 C 518.527344 284.660156 529.875 290.378906 532.246094 285.832031 C 535.890625 278.742188 508.351562 266.101562 504.757812 240.894531 Z M 224.4375 362.019531 C 221.992188 360.941406 219.351562 359.792969 216.808594 358.496094 C 205.019531 352.484375 177.675781 338.496094 166.15625 309.597656 C 157.984375 289.304688 158.671875 265.441406 168.773438 239.402344 C 177.210938 217.617188 180.023438 206.492188 198.78125 152.410156 L 224.4375 152.410156 Z M 269.148438 372.921875 C 259.136719 371.851562 249.28125 369.96875 239.578125 367.273438 L 239.578125 152.410156 L 269.148438 152.410156 Z M 313.882812 375.367188 L 311.828125 375.367188 C 303.785156 375.550781 295.753906 375.304688 287.738281 374.632812 L 284.289062 374.339844 L 284.289062 152.335938 L 313.882812 152.335938 Z M 358.59375 368.03125 C 352.980469 369.894531 347.273438 371.402344 341.472656 372.554688 C 337.070312 373.414062 332.9375 374 329.097656 374.414062 L 329.097656 152.410156 L 358.691406 152.410156 Z M 430.71875 312.972656 C 419.152344 339.425781 392.296875 352.726562 379.015625 359.425781 C 377.238281 360.339844 375.476562 361.195312 373.734375 361.992188 L 373.734375 152.410156 L 397.972656 152.410156 C 411.839844 199.011719 422.894531 216.34375 433.238281 253.800781 C 439.378906 275.757812 438.203125 295.808594 430.71875 312.921875 Z M 430.71875 312.972656 " fill-opacity="1" fill-rule="nonzero"/><path fill="#8d8f91" d="M 242.660156 42.773438 C 242.660156 43.484375 242.589844 44.191406 242.453125 44.886719 C 242.3125 45.585938 242.109375 46.261719 241.835938 46.917969 C 241.5625 47.578125 241.230469 48.199219 240.835938 48.792969 C 240.4375 49.382812 239.988281 49.929688 239.488281 50.433594 C 238.984375 50.9375 238.4375 51.386719 237.84375 51.78125 C 237.253906 52.175781 236.628906 52.507812 235.972656 52.78125 C 235.316406 53.054688 234.636719 53.257812 233.9375 53.398438 C 233.242188 53.535156 232.535156 53.605469 231.824219 53.605469 C 231.113281 53.605469 230.410156 53.535156 229.710938 53.398438 C 229.015625 53.257812 228.335938 53.054688 227.679688 52.78125 C 227.023438 52.507812 226.398438 52.175781 225.804688 51.78125 C 225.214844 51.386719 224.667969 50.9375 224.164062 50.433594 C 223.660156 49.929688 223.210938 49.382812 222.816406 48.792969 C 222.421875 48.199219 222.085938 47.578125 221.816406 46.917969 C 221.542969 46.261719 221.335938 45.585938 221.199219 44.886719 C 221.058594 44.191406 220.992188 43.484375 220.992188 42.773438 C 220.992188 42.0625 221.058594 41.359375 221.199219 40.660156 C 221.335938 39.964844 221.542969 39.285156 221.816406 38.628906 C 222.085938 37.972656 222.421875 37.347656 222.816406 36.757812 C 223.210938 36.164062 223.660156 35.617188 224.164062 35.117188 C 224.667969 34.613281 225.214844 34.164062 225.804688 33.769531 C 226.398438 33.375 227.023438 33.039062 227.679688 32.769531 C 228.335938 32.496094 229.015625 32.289062 229.710938 32.152344 C 230.410156 32.011719 231.113281 31.945312 231.824219 31.945312 C 232.535156 31.945312 233.242188 32.011719 233.9375 32.152344 C 234.636719 32.289062 235.316406 32.496094 235.972656 32.769531 C 236.628906 33.039062 237.253906 33.375 237.84375 33.769531 C 238.4375 34.164062 238.984375 34.613281 239.488281 35.117188 C 239.988281 35.617188 240.4375 36.164062 240.835938 36.757812 C 241.230469 37.347656 241.5625 37.972656 241.835938 38.628906 C 242.109375 39.285156 242.3125 39.964844 242.453125 40.660156 C 242.589844 41.359375 242.660156 42.0625 242.660156 42.773438 Z M 242.660156 42.773438 " fill-opacity="1" fill-rule="nonzero"/><path fill="#8d8f91" d="M 286.980469 42.773438 C 286.980469 43.484375 286.910156 44.191406 286.769531 44.886719 C 286.632812 45.585938 286.425781 46.261719 286.152344 46.917969 C 285.882812 47.578125 285.546875 48.199219 285.152344 48.792969 C 284.757812 49.382812 284.308594 49.929688 283.804688 50.433594 C 283.300781 50.9375 282.753906 51.386719 282.164062 51.78125 C 281.570312 52.175781 280.949219 52.507812 280.289062 52.78125 C 279.632812 53.054688 278.957031 53.257812 278.257812 53.398438 C 277.558594 53.535156 276.855469 53.605469 276.144531 53.605469 C 275.433594 53.605469 274.726562 53.535156 274.03125 53.398438 C 273.332031 53.257812 272.65625 53.054688 271.996094 52.78125 C 271.339844 52.507812 270.714844 52.175781 270.125 51.78125 C 269.53125 51.386719 268.984375 50.9375 268.480469 50.433594 C 267.980469 49.929688 267.53125 49.382812 267.136719 48.792969 C 266.738281 48.199219 266.40625 47.578125 266.132812 46.917969 C 265.863281 46.261719 265.65625 45.585938 265.515625 44.886719 C 265.378906 44.191406 265.308594 43.484375 265.308594 42.773438 C 265.308594 42.0625 265.378906 41.359375 265.515625 40.660156 C 265.65625 39.964844 265.863281 39.285156 266.132812 38.628906 C 266.40625 37.972656 266.738281 37.347656 267.136719 36.757812 C 267.53125 36.164062 267.980469 35.617188 268.480469 35.117188 C 268.984375 34.613281 269.53125 34.164062 270.125 33.769531 C 270.714844 33.375 271.339844 33.039062 271.996094 32.769531 C 272.65625 32.496094 273.332031 32.289062 274.03125 32.152344 C 274.726562 32.011719 275.433594 31.945312 276.144531 31.945312 C 276.855469 31.945312 277.558594 32.011719 278.257812 32.152344 C 278.957031 32.289062 279.632812 32.496094 280.289062 32.769531 C 280.949219 33.039062 281.570312 33.375 282.164062 33.769531 C 282.753906 34.164062 283.300781 34.613281 283.804688 35.117188 C 284.308594 35.617188 284.757812 36.164062 285.152344 36.757812 C 285.546875 37.347656 285.882812 37.972656 286.152344 38.628906 C 286.425781 39.285156 286.632812 39.964844 286.769531 40.660156 C 286.910156 41.359375 286.980469 42.0625 286.980469 42.773438 Z M 286.980469 42.773438 " fill-opacity="1" fill-rule="nonzero"/><path fill="#8d8f91" d="M 332.886719 42.773438 C 332.886719 43.484375 332.816406 44.191406 332.679688 44.886719 C 332.539062 45.585938 332.335938 46.261719 332.0625 46.917969 C 331.789062 47.578125 331.457031 48.199219 331.0625 48.792969 C 330.664062 49.382812 330.21875 49.929688 329.714844 50.433594 C 329.210938 50.9375 328.664062 51.386719 328.070312 51.78125 C 327.480469 52.175781 326.855469 52.507812 326.199219 52.78125 C 325.542969 53.054688 324.863281 53.257812 324.167969 53.398438 C 323.46875 53.535156 322.765625 53.605469 322.050781 53.605469 C 321.339844 53.605469 320.636719 53.535156 319.9375 53.398438 C 319.242188 53.257812 318.5625 53.054688 317.90625 52.78125 C 317.25 52.507812 316.625 52.175781 316.03125 51.78125 C 315.441406 51.386719 314.894531 50.9375 314.390625 50.433594 C 313.886719 49.929688 313.4375 49.382812 313.042969 48.792969 C 312.648438 48.199219 312.3125 47.578125 312.042969 46.917969 C 311.769531 46.261719 311.5625 45.585938 311.425781 44.886719 C 311.285156 44.191406 311.21875 43.484375 311.21875 42.773438 C 311.21875 42.0625 311.285156 41.359375 311.425781 40.660156 C 311.5625 39.964844 311.769531 39.285156 312.042969 38.628906 C 312.3125 37.972656 312.648438 37.347656 313.042969 36.757812 C 313.4375 36.164062 313.886719 35.617188 314.390625 35.117188 C 314.894531 34.613281 315.441406 34.164062 316.03125 33.769531 C 316.625 33.375 317.25 33.039062 317.90625 32.769531 C 318.5625 32.496094 319.242188 32.289062 319.9375 32.152344 C 320.636719 32.011719 321.339844 31.945312 322.050781 31.945312 C 322.765625 31.945312 323.46875 32.011719 324.167969 32.152344 C 324.863281 32.289062 325.542969 32.496094 326.199219 32.769531 C 326.855469 33.039062 327.480469 33.375 328.070312 33.769531 C 328.664062 34.164062 329.210938 34.613281 329.714844 35.117188 C 330.21875 35.617188 330.664062 36.164062 331.0625 36.757812 C 331.457031 37.347656 331.789062 37.972656 332.0625 38.628906 C 332.335938 39.285156 332.539062 39.964844 332.679688 40.660156 C 332.816406 41.359375 332.886719 42.0625 332.886719 42.773438 Z M 332.886719 42.773438 " fill-opacity="1" fill-rule="nonzero"/><path fill="#8d8f91" d="M 377.207031 42.773438 C 377.207031 43.484375 377.136719 44.191406 376.996094 44.886719 C 376.859375 45.585938 376.652344 46.261719 376.382812 46.917969 C 376.109375 47.578125 375.773438 48.199219 375.378906 48.792969 C 374.984375 49.382812 374.535156 49.929688 374.03125 50.433594 C 373.527344 50.9375 372.980469 51.386719 372.390625 51.78125 C 371.796875 52.175781 371.175781 52.507812 370.515625 52.78125 C 369.859375 53.054688 369.183594 53.257812 368.484375 53.398438 C 367.785156 53.535156 367.082031 53.605469 366.371094 53.605469 C 365.660156 53.605469 364.953125 53.535156 364.257812 53.398438 C 363.558594 53.257812 362.882812 53.054688 362.222656 52.78125 C 361.566406 52.507812 360.941406 52.175781 360.351562 51.78125 C 359.757812 51.386719 359.210938 50.9375 358.710938 50.433594 C 358.207031 49.929688 357.757812 49.382812 357.363281 48.792969 C 356.964844 48.199219 356.632812 47.578125 356.359375 46.917969 C 356.089844 46.261719 355.882812 45.585938 355.742188 44.886719 C 355.605469 44.191406 355.535156 43.484375 355.535156 42.773438 C 355.535156 42.0625 355.605469 41.359375 355.742188 40.660156 C 355.882812 39.964844 356.089844 39.285156 356.359375 38.628906 C 356.632812 37.972656 356.964844 37.347656 357.363281 36.757812 C 357.757812 36.164062 358.207031 35.617188 358.710938 35.117188 C 359.210938 34.613281 359.757812 34.164062 360.351562 33.769531 C 360.941406 33.375 361.566406 33.039062 362.222656 32.769531 C 362.882812 32.496094 363.558594 32.289062 364.257812 32.152344 C 364.953125 32.011719 365.660156 31.945312 366.371094 31.945312 C 367.082031 31.945312 367.785156 32.011719 368.484375 32.152344 C 369.183594 32.289062 369.859375 32.496094 370.515625 32.769531 C 371.175781 33.039062 371.796875 33.375 372.390625 33.769531 C 372.980469 34.164062 373.527344 34.613281 374.03125 35.117188 C 374.535156 35.617188 374.984375 36.164062 375.378906 36.757812 C 375.773438 37.347656 376.109375 37.972656 376.382812 38.628906 C 376.652344 39.285156 376.859375 39.964844 376.996094 40.660156 C 377.136719 41.359375 377.207031 42.0625 377.207031 42.773438 Z M 377.207031 42.773438 " fill-opacity="1" fill-rule="nonzero"/></svg>